<svg width="130" height="130" viewBox="0 0 130 130" fill="none" xmlns="http://www.w3.org/2000/svg">
<path d="M85.1249 95.7315L65.3259 115.53C64.9354 115.921 64.3022 115.921 63.9117 115.53L46.9411 98.5599C46.5506 98.1694 46.5506 97.5362 46.9411 97.1457L66.7401 77.3467C67.1306 76.9562 67.7638 76.9562 68.1543 77.3467L85.1249 94.3173C85.5154 94.7078 85.5154 95.341 85.1249 95.7315Z" stroke="#1CCAB8" stroke-width="9"/>
<path d="M115.53 65.3259L95.7315 85.1249C95.341 85.5154 94.7078 85.5154 94.3173 85.1249L77.3467 68.1543C76.9562 67.7638 76.9562 67.1306 77.3467 66.7401L97.1457 46.9411C97.5362 46.5506 98.1694 46.5506 98.5599 46.9411L115.53 63.9117C115.921 64.3022 115.921 64.9354 115.53 65.3259Z" stroke="#F14586" stroke-width="9"/>
<path d="M87.9533 37.7487L50.0094 75.6926C49.3871 76.3149 48.3224 75.8879 48.3026 75.0081L47.3043 30.7515C47.2982 30.4785 47.4039 30.2149 47.597 30.0218L63.9117 13.7071C64.3022 13.3166 64.9354 13.3166 65.3259 13.7071L87.9533 36.3345C88.3438 36.725 88.3438 37.3582 87.9533 37.7487Z" stroke="#4D79F6" stroke-width="9"/>
<path d="M32.799 47.234V82.0036C32.799 82.8945 31.7218 83.3406 31.0919 82.7107L13.7071 65.3259C13.3166 64.9354 13.3166 64.3022 13.7071 63.9117L31.0919 46.5269C31.7218 45.8969 32.799 46.3431 32.799 47.234Z" stroke="#F4B736" stroke-width="9"/>
</svg>
